<svg id="Capa_1" enable-background="new 0 0 512 512" height="512" viewBox="0 0 512 512" width="512" xmlns="http://www.w3.org/2000/svg" xmlns:xlink="http://www.w3.org/1999/xlink"><linearGradient id="SVGID_1_" gradientUnits="userSpaceOnUse" x1="256" x2="256" y1="512" y2="0"><stop offset="0" stop-color="#c3ffe8"/><stop offset=".9973" stop-color="#f0fff4"/></linearGradient><linearGradient id="SVGID_2_" gradientUnits="userSpaceOnUse" x1="256" x2="256" y1="407" y2="105"><stop offset="0" stop-color="#9cffac"/><stop offset="1" stop-color="#00b59c"/></linearGradient><g><g><circle cx="256" cy="256" fill="url(#SVGID_1_)" r="256"/></g><g><g><path d="m402.09 390.172-71.059-35.529c-2.498-1.249-5.448-1.249-7.946 0l-67.085 33.543-67.086-33.543c-2.498-1.249-5.448-1.249-7.946 0l-71.059 35.529c-4.389 2.195-6.159 7.529-3.973 11.918 2.203 4.398 7.512 6.133 11.918 3.973l67.086-33.543 67.086 33.543c2.498 1.249 5.447 1.249 7.945 0l67.086-33.543 67.086 33.543c4.492 2.215 9.754.343 11.918-3.973 2.188-4.389.418-9.723-3.971-11.918zm-154.973-27.584c0 4.91 3.973 8.882 8.882 8.882s8.882-3.973 8.882-8.882c0-27.74 20.454-50.189 42.104-73.965 22.969-25.224 46.719-51.308 46.719-85.918.002-53.874-43.838-97.705-97.704-97.705s-97.706 43.831-97.706 97.706c0 34.61 23.75 60.693 46.719 85.918 21.651 23.775 42.104 46.224 42.104 73.964zm-50.692-148.398c3.47-3.47 9.091-3.47 12.56 0l11.485 11.485 31.852-31.852h-31.852c-4.91 0-8.882-3.973-8.882-8.882s3.973-8.882 8.882-8.882h49.616l15.162-15.162c3.47-3.47 9.091-3.47 12.56 0s3.47 9.091 0 12.56l-15.163 15.162v49.616c0 4.91-3.973 8.882-8.882 8.882s-8.882-3.973-8.882-8.882v-31.852l-38.132 38.132c-1.735 1.735-4.008 2.602-6.28 2.602-2.273 0-4.545-.867-6.28-2.602l-17.765-17.765c-3.468-3.469-3.468-9.09.001-12.56z" fill="url(#SVGID_2_)"/></g></g></g></svg>